<svg xmlns="http://www.w3.org/2000/svg" xmlns:xlink="http://www.w3.org/1999/xlink" id="Layer_1" enable-background="new 0 0 512 512" version="1.1" viewBox="0 0 512 512" xml:space="preserve"><g><g><linearGradient id="SVGID_1_" x1="0" x2="512" y1="256" y2="256" gradientUnits="userSpaceOnUse"><stop offset="0" style="stop-color:#b49a85"/><stop offset=".065" style="stop-color:#b0957f"/><stop offset=".286" style="stop-color:#a88a71"/><stop offset=".554" style="stop-color:#a38369"/><stop offset="1" style="stop-color:#a18166"/></linearGradient><circle cx="256" cy="256" r="256" fill="url(#SVGID_1_)"/><linearGradient id="SVGID_2_" x1="42.667" x2="469.333" y1="256.001" y2="256.001" gradientUnits="userSpaceOnUse"><stop offset="0" style="stop-color:#a18166"/><stop offset=".446" style="stop-color:#a38369"/><stop offset=".714" style="stop-color:#a88a71"/><stop offset=".935" style="stop-color:#b0957f"/><stop offset="1" style="stop-color:#b49a85"/></linearGradient><path fill="url(#SVGID_2_)" d="M256,469.3338623c-117.6314697,0-213.3333435-95.7023926-213.3333435-213.3333435 c0-117.6314545,95.7018661-213.333313,213.3333435-213.333313c117.6357422,0,213.3333435,95.7018661,213.3333435,213.333313 C469.3333435,373.6314697,373.6357422,469.3338623,256,469.3338623z"/></g><path d="M332.2437439,273.1418762v-36.0261383c0-31.3264008-21.1343994-57.657074-49.9034729-65.6778717V144 h-36.680542v27.4378662c-28.7695923,8.0207977-49.9039917,34.3514709-49.9039917,65.6778717v36.0261383 c0,28.510376-18.7514648,59.0047913-40.093338,76.7354431h74.2154694c0,18.8448181,15.2767944,34.1221619,34.1221313,34.1221619 c18.8447876,0,34.1221313-15.2773438,34.1221313-34.1221619h74.2149353 C350.9952087,332.1466675,332.2437439,301.6522522,332.2437439,273.1418762z M264.0021362,196.906662 c-22.1754761,0-40.2149353,18.0368042-40.2149353,40.20961h-10c0-27.6853333,22.5269318-50.20961,50.2149353-50.20961V196.906662z" opacity=".3"/><path fill="#FFF" d="M324.2437439,265.1418762v-36.0261383c0-31.3264008-21.1343994-57.657074-49.9034729-65.6778717V136 h-36.680542v27.4378662c-28.7695923,8.0207977-49.9039917,34.3514709-49.9039917,65.6778717v36.0261383 c0,28.510376-18.7514648,59.0047913-40.093338,76.7354431h74.2154694c0,18.8448181,15.2767944,34.1221619,34.1221313,34.1221619 c18.8447876,0,34.1221313-15.2773438,34.1221313-34.1221619h74.2149353 C342.9952087,324.1466675,324.2437439,293.6522522,324.2437439,265.1418762z M256.0021362,188.906662 c-22.1754761,0-40.2149353,18.0368042-40.2149353,40.20961h-10c0-27.6853333,22.5269318-50.20961,50.2149353-50.20961V188.906662z"/></g></svg>