<svg xmlns="http://www.w3.org/2000/svg" xmlns:svg="http://www.w3.org/2000/svg" id="Layer_1" x="0" y="0" version="1.1" viewBox="0 0 489 489" xml:space="preserve" style="enable-background:new 0 0 489 489"><metadata id="metadata105"/><path id="path4" d="M 389.96478,252.85665 V 78.710292 l 58.03342,54.189828 c 9.23258,8.6211 24.5323,8.6211 33.76489,0 4.74819,-4.43372 7.12229,-10.09902 7.12229,-15.76432 0,-5.6653 -2.3741,-11.3306 -7.12229,-15.76431 L 382.84249,9.0024831 c -9.2326,-8.62110734 -24.53232,-8.62110734 -33.76489,0 L 250.157,101.37149 c -9.2326,8.62111 -9.2326,22.90751 0,31.52863 9.23257,8.6211 24.53229,8.6211 33.76488,0 L 341.95531,78.710292 V 252.85665 c 0,102.71434 -89.42424,186.21592 -199.42395,186.21592 H 25.673167 c -13.189414,0 -24.0047314,10.09901 -24.0047314,22.41489 0,12.31585 10.8153174,22.41486 24.0047314,22.41486 H 142.53136 c 136.37854,0 247.43342,-103.45327 247.43342,-231.04567 z" style="stroke-width:2.54903173"/></svg>